<svg width="800" height="800" viewBox="0 0 800 800" fill="none" xmlns="http://www.w3.org/2000/svg">
<g clip-path="url(#clip0_2_11)">
<path d="M995.001 -213H-193.332V975.333H995.001V-213Z" fill="#961B81"/>
<mask id="mask0_2_11" style="mask-type:luminance" maskUnits="userSpaceOnUse" x="38" y="220" width="726" height="323">
<path d="M763.217 220.188H38.4375V542.152H763.217V220.188Z" fill="white"/>
</mask>
<g mask="url(#mask0_2_11)">
<path d="M391.508 426.069V318.139C391.508 309.553 384.556 302.602 375.971 302.602H318.723V358.735C318.723 395.915 348.877 426.069 386.057 426.069H391.508Z" fill="white"/>
</g>
<mask id="mask1_2_11" style="mask-type:luminance" maskUnits="userSpaceOnUse" x="38" y="220" width="726" height="323">
<path d="M763.217 220.188H38.4375V542.152H763.217V220.188Z" fill="white"/>
</mask>
<g mask="url(#mask1_2_11)">
<path d="M475.593 284.565C475.593 275.979 468.642 269.027 460.056 269.027H402.793V426.051H408.259C445.439 426.051 475.593 395.912 475.593 358.717V284.565Z" fill="white"/>
</g>
<mask id="mask2_2_11" style="mask-type:luminance" maskUnits="userSpaceOnUse" x="38" y="220" width="726" height="323">
<path d="M763.232 220.188H38.5117V542.152H763.232V220.188Z" fill="white"/>
</mask>
<g mask="url(#mask2_2_11)">
<path d="M475.593 242.201C475.593 250.787 468.642 257.739 460.056 257.739H402.793V235.725C402.793 227.139 409.745 220.188 418.331 220.188H476.781C476.871 220.188 476.93 220.247 476.93 220.336C476.93 220.395 476.9 220.44 476.856 220.47H476.841C476.128 220.856 475.623 221.599 475.579 222.445L475.593 242.201Z" fill="white"/>
</g>
<mask id="mask3_2_11" style="mask-type:luminance" maskUnits="userSpaceOnUse" x="38" y="220" width="726" height="323">
<path d="M763.232 220.188H38.5117V542.152H763.232V220.188Z" fill="white"/>
</mask>
<g mask="url(#mask3_2_11)">
<path d="M55.1977 507.902V530.332C55.1977 535.026 52.9398 537.833 49.152 537.833C46.1366 537.833 44.1164 536.571 41.9626 533.318L41.7249 532.946L38.457 535.754L38.6353 536.036C41.0714 540.032 44.6066 542.052 49.1222 542.052C55.6878 542.052 59.7579 537.536 59.7579 530.288V507.902H55.1977Z" fill="white"/>
</g>
<mask id="mask4_2_11" style="mask-type:luminance" maskUnits="userSpaceOnUse" x="38" y="220" width="726" height="323">
<path d="M763.217 220.188H38.4375V542.152H763.217V220.188Z" fill="white"/>
</mask>
<g mask="url(#mask4_2_11)">
<path d="M96.6816 500.531H91.6758V505.775H96.6816V500.531Z" fill="white"/>
</g>
<mask id="mask5_2_11" style="mask-type:luminance" maskUnits="userSpaceOnUse" x="38" y="220" width="726" height="323">
<path d="M763.217 220.188H38.4375V542.152H763.217V220.188Z" fill="white"/>
</mask>
<g mask="url(#mask5_2_11)">
<path d="M90.1028 507.332C80.4476 507.332 72.8867 514.997 72.8867 524.786C72.8867 534.679 80.2396 542.135 90.0136 542.135C99.6688 542.135 107.23 534.471 107.23 524.682C107.215 514.804 99.862 507.332 90.1028 507.332ZM102.58 524.786C102.58 532.287 97.218 537.932 90.088 537.932C82.9134 537.932 77.5063 532.242 77.5063 524.697C77.5063 517.21 82.8687 511.551 89.9987 511.551C97.1733 511.551 102.58 517.24 102.58 524.786Z" fill="white"/>
</g>
<mask id="mask6_2_11" style="mask-type:luminance" maskUnits="userSpaceOnUse" x="38" y="220" width="726" height="323">
<path d="M763.217 220.188H38.4375V542.152H763.217V220.188Z" fill="white"/>
</mask>
<g mask="url(#mask6_2_11)">
<path d="M88.4238 500.531H83.418V505.775H88.4238V500.531Z" fill="white"/>
</g>
<mask id="mask7_2_11" style="mask-type:luminance" maskUnits="userSpaceOnUse" x="38" y="220" width="726" height="323">
<path d="M763.217 220.188H38.4375V542.152H763.217V220.188Z" fill="white"/>
</mask>
<g mask="url(#mask7_2_11)">
<path d="M144.42 507.902V533.541L124.278 507.902H120.223V541.592H124.62V515.344L145.163 541.443L145.282 541.592H148.832V507.902H144.42Z" fill="white"/>
</g>
<mask id="mask8_2_11" style="mask-type:luminance" maskUnits="userSpaceOnUse" x="38" y="220" width="726" height="323">
<path d="M763.217 220.188H38.4375V542.152H763.217V220.188Z" fill="white"/>
</mask>
<g mask="url(#mask8_2_11)">
<path d="M178.989 522.697L193.502 507.902H187.604L169.274 526.975V507.902H164.773V541.577H169.274V532.516L175.855 525.846L188.332 541.577H193.992L178.989 522.697Z" fill="white"/>
</g>
<mask id="mask9_2_11" style="mask-type:luminance" maskUnits="userSpaceOnUse" x="38" y="220" width="726" height="323">
<path d="M763.217 220.188H38.4375V542.152H763.217V220.188Z" fill="white"/>
</mask>
<g mask="url(#mask9_2_11)">
<path d="M224.607 500.531H219.602V505.775H224.607V500.531Z" fill="white"/>
</g>
<mask id="mask10_2_11" style="mask-type:luminance" maskUnits="userSpaceOnUse" x="38" y="220" width="726" height="323">
<path d="M763.217 220.188H38.4375V542.152H763.217V220.188Z" fill="white"/>
</mask>
<g mask="url(#mask10_2_11)">
<path d="M216.334 500.531H211.328V505.775H216.334V500.531Z" fill="white"/>
</g>
<mask id="mask11_2_11" style="mask-type:luminance" maskUnits="userSpaceOnUse" x="38" y="220" width="726" height="323">
<path d="M763.217 220.188H38.4375V542.152H763.217V220.188Z" fill="white"/>
</mask>
<g mask="url(#mask11_2_11)">
<path d="M218.013 507.332C208.358 507.332 200.797 514.997 200.797 524.786C200.797 534.679 208.15 542.135 217.924 542.135C227.579 542.135 235.14 534.471 235.14 524.682C235.14 514.804 227.772 507.332 218.013 507.332ZM230.505 524.786C230.505 532.287 225.143 537.932 218.013 537.932C210.838 537.932 205.431 532.242 205.431 524.697C205.431 517.21 210.794 511.551 217.924 511.551C225.098 511.551 230.505 517.24 230.505 524.786Z" fill="white"/>
</g>
<mask id="mask12_2_11" style="mask-type:luminance" maskUnits="userSpaceOnUse" x="38" y="220" width="726" height="323">
<path d="M763.217 220.188H38.4375V542.152H763.217V220.188Z" fill="white"/>
</mask>
<g mask="url(#mask12_2_11)">
<path d="M261.485 507.902H248.785V541.577H253.271V529.976H260.876C267.501 529.976 274.186 526.515 274.186 518.776C274.186 512.18 269.21 507.902 261.485 507.902ZM269.655 518.924C269.655 523.113 266.268 525.816 261.025 525.816H253.286V512.121H261.218C266.566 512.121 269.655 514.602 269.655 518.924Z" fill="white"/>
</g>
<mask id="mask13_2_11" style="mask-type:luminance" maskUnits="userSpaceOnUse" x="38" y="220" width="726" height="323">
<path d="M763.217 220.188H38.4375V542.152H763.217V220.188Z" fill="white"/>
</mask>
<g mask="url(#mask13_2_11)">
<path d="M291.747 507.902H287.246V541.577H291.747V507.902Z" fill="white"/>
</g>
<mask id="mask14_2_11" style="mask-type:luminance" maskUnits="userSpaceOnUse" x="38" y="220" width="726" height="323">
<path d="M763.217 220.188H38.4375V542.152H763.217V220.188Z" fill="white"/>
</mask>
<g mask="url(#mask14_2_11)">
<path d="M331.944 507.902V533.541L311.801 507.902H307.746V541.592H312.143V515.344L332.686 541.443L332.805 541.592H336.355V507.902H331.944Z" fill="white"/>
</g>
<mask id="mask15_2_11" style="mask-type:luminance" maskUnits="userSpaceOnUse" x="38" y="220" width="726" height="323">
<path d="M763.217 220.188H38.4375V542.152H763.217V220.188Z" fill="white"/>
</mask>
<g mask="url(#mask15_2_11)">
<path d="M366.968 523.231V527.345H376.979V534.951C374.528 536.882 371.127 538.04 367.874 538.04C360.328 538.04 355.248 532.678 355.248 524.701C355.248 517.334 360.566 511.555 367.354 511.555C372.226 511.555 374.93 513.323 377.113 515.224L377.41 515.477L380.322 512.06L380.025 511.808C376.266 508.644 372.642 507.352 367.503 507.352C358.041 507.352 350.613 515.016 350.613 524.805C350.613 535.025 357.654 542.155 367.74 542.155C374.454 542.155 379.059 538.946 381.213 537.03L381.347 536.911V523.231H366.968Z" fill="white"/>
</g>
<mask id="mask16_2_11" style="mask-type:luminance" maskUnits="userSpaceOnUse" x="38" y="220" width="726" height="323">
<path d="M763.217 220.188H38.4375V542.152H763.217V220.188Z" fill="white"/>
</mask>
<g mask="url(#mask16_2_11)">
<path d="M436.83 507.902V527.421C436.83 534.164 433.443 537.893 427.308 537.893C421.159 537.893 417.638 533.986 417.638 527.198V507.917H413.152V527.436C413.152 536.497 418.544 542.111 427.219 542.111C436.057 542.111 441.331 536.511 441.331 527.153V507.917H436.83V507.902Z" fill="white"/>
</g>
<mask id="mask17_2_11" style="mask-type:luminance" maskUnits="userSpaceOnUse" x="38" y="220" width="726" height="323">
<path d="M763.217 220.188H38.4375V542.152H763.217V220.188Z" fill="white"/>
</mask>
<g mask="url(#mask17_2_11)">
<path d="M480.47 507.902V533.541L460.313 507.902H456.258V541.592H460.655V515.344L481.198 541.443L481.317 541.592H484.867V507.902H480.47Z" fill="white"/>
</g>
<mask id="mask18_2_11" style="mask-type:luminance" maskUnits="userSpaceOnUse" x="38" y="220" width="726" height="323">
<path d="M763.217 220.188H38.4375V542.152H763.217V220.188Z" fill="white"/>
</mask>
<g mask="url(#mask18_2_11)">
<path d="M505.439 507.902H500.953V541.577H505.439V507.902Z" fill="white"/>
</g>
<mask id="mask19_2_11" style="mask-type:luminance" maskUnits="userSpaceOnUse" x="38" y="220" width="726" height="323">
<path d="M763.217 220.188H38.4375V542.152H763.217V220.188Z" fill="white"/>
</mask>
<g mask="url(#mask19_2_11)">
<path d="M545.754 507.902L534.257 535.62L522.819 507.902H517.828L532.207 541.577L532.311 541.814H536.114L550.597 507.902H545.754Z" fill="white"/>
</g>
<mask id="mask20_2_11" style="mask-type:luminance" maskUnits="userSpaceOnUse" x="38" y="220" width="726" height="323">
<path d="M763.217 220.188H38.4375V542.152H763.217V220.188Z" fill="white"/>
</mask>
<g mask="url(#mask20_2_11)">
<path d="M566.791 537.418V526.678H584.749V522.519H566.791V512.076H586.859V507.902H562.305V541.577H587.096V537.418H566.791Z" fill="white"/>
</g>
<mask id="mask21_2_11" style="mask-type:luminance" maskUnits="userSpaceOnUse" x="38" y="220" width="726" height="323">
<path d="M763.217 220.188H38.4375V542.152H763.217V220.188Z" fill="white"/>
</mask>
<g mask="url(#mask21_2_11)">
<path d="M619.161 528.015C624.657 526.812 627.792 523.232 627.792 518.122C627.792 511.913 622.979 507.902 615.507 507.902H600.965V541.577H605.451V528.787H614.259L623.796 541.577H629.336L619.161 528.015ZM623.261 518.256C623.261 522.162 620.097 524.673 615.195 524.673H605.481V512.106H615.24C620.335 512.121 623.261 514.349 623.261 518.256Z" fill="white"/>
</g>
<mask id="mask22_2_11" style="mask-type:luminance" maskUnits="userSpaceOnUse" x="38" y="220" width="726" height="323">
<path d="M763.217 220.188H38.4375V542.152H763.217V220.188Z" fill="white"/>
</mask>
<g mask="url(#mask22_2_11)">
<path d="M653.903 522.574C646.61 521.014 645.288 519.306 645.288 516.513C645.288 513.587 648.006 511.552 651.898 511.552C655.299 511.552 658.226 512.666 661.152 515.043L661.464 515.295L664.093 511.805L663.796 511.567C660.186 508.67 656.666 507.438 651.987 507.438C645.496 507.438 640.787 511.389 640.787 516.855C640.787 523.034 645.317 525.292 652.135 526.778C659.102 528.248 660.38 529.927 660.38 532.69C660.38 535.824 657.587 537.933 653.443 537.933C649.194 537.933 646.001 536.611 642.421 533.388L642.124 533.12L639.316 536.448L639.599 536.7C643.698 540.354 648.051 542.063 653.294 542.063C660.246 542.063 664.91 538.141 664.91 532.318C664.925 527.164 661.627 524.252 653.903 522.574Z" fill="white"/>
</g>
<mask id="mask23_2_11" style="mask-type:luminance" maskUnits="userSpaceOnUse" x="38" y="220" width="726" height="323">
<path d="M763.217 220.188H38.4375V542.152H763.217V220.188Z" fill="white"/>
</mask>
<g mask="url(#mask23_2_11)">
<path d="M683.568 507.902H679.082V541.577H683.568V507.902Z" fill="white"/>
</g>
<mask id="mask24_2_11" style="mask-type:luminance" maskUnits="userSpaceOnUse" x="38" y="220" width="726" height="323">
<path d="M763.217 220.188H38.4375V542.152H763.217V220.188Z" fill="white"/>
</mask>
<g mask="url(#mask24_2_11)">
<path d="M695.734 507.902V512.121H706.771V541.592H711.316V512.121H722.368V507.902H695.734Z" fill="white"/>
</g>
<mask id="mask25_2_11" style="mask-type:luminance" maskUnits="userSpaceOnUse" x="38" y="220" width="726" height="323">
<path d="M763.217 220.188H38.4375V542.152H763.217V220.188Z" fill="white"/>
</mask>
<g mask="url(#mask25_2_11)">
<path d="M757.957 507.902L746.979 524.049L736.091 507.902H730.625L744.662 528.297V541.592H749.193V528.253L763.23 507.902H757.957Z" fill="white"/>
</g>
</g>
<defs>
<clipPath id="clip0_2_11">
<rect width="800" height="800" fill="white"/>
</clipPath>
</defs>
</svg>
